<?xml version="1.0" standalone="no"?>
<!DOCTYPE svg PUBLIC "-//W3C//DTD SVG 20010904//EN"
 "http://www.w3.org/TR/2001/REC-SVG-20010904/DTD/svg10.dtd">
<svg version="1.0" xmlns="http://www.w3.org/2000/svg"
 width="485.000000pt" height="355.000000pt" viewBox="0 0 485.000000 355.000000"
 preserveAspectRatio="xMidYMid meet">

<g transform="translate(0.000000,355.000000) scale(0.100000,-0.100000)"
fill="#000000" stroke="none">
<path d="M2300 3507 c-106 -36 -171 -77 -242 -149 l-47 -49 -58 18 c-170 51
-351 -10 -447 -150 -48 -70 -66 -132 -66 -228 0 -138 61 -248 180 -327 l66
-44 -22 -121 c-11 -67 -29 -140 -38 -162 -10 -22 -21 -76 -26 -120 -4 -44 -18
-107 -31 -140 -41 -111 -28 -232 35 -320 l21 -30 -30 23 c-73 56 -217 197
-226 220 -7 17 -5 67 6 155 26 212 2 281 -154 440 -89 91 -516 491 -587 551
l-32 26 -66 -51 c-36 -28 -66 -54 -66 -57 0 -3 117 -123 260 -267 281 -284
286 -290 235 -340 -13 -14 -33 -25 -45 -25 -25 0 -155 118 -390 354 l-175 176
-67 -67 -67 -66 260 -265 c143 -146 262 -276 266 -290 14 -57 -44 -105 -95
-78 -15 8 -139 127 -277 265 -137 138 -253 251 -257 251 -10 0 -110 -129 -106
-139 6 -16 486 -526 590 -627 150 -146 219 -168 434 -140 80 11 130 13 145 7
13 -5 44 -30 68 -55 l45 -46 -22 -39 c-13 -22 -22 -55 -21 -77 0 -38 2 -40 62
-69 83 -40 110 -91 116 -214 3 -79 2 -83 -15 -76 -55 21 -78 24 -109 10 -41
-16 -55 -41 -55 -93 0 -49 28 -76 117 -112 l60 -24 6 -220 c4 -191 8 -229 26
-281 33 -93 98 -194 171 -266 74 -73 144 -117 238 -149 62 -20 75 -21 670 -18
l607 3 63 27 c172 74 312 226 372 408 19 56 23 95 28 281 l5 215 60 25 c91 36
117 61 117 115 0 35 -6 51 -25 70 -22 22 -33 25 -73 22 -26 -3 -55 -8 -66 -13
-18 -8 -18 -3 -14 81 6 124 30 168 115 209 60 29 62 31 62 70 1 23 -7 54 -18
72 -18 29 -18 32 -3 46 35 30 64 37 228 52 93 9 196 22 229 30 88 22 212 87
277 145 119 106 245 310 303 490 37 114 46 282 20 360 -22 65 -73 123 -139
158 -47 25 -59 27 -171 26 -103 0 -132 -5 -205 -28 -240 -79 -458 -225 -559
-377 -72 -108 -102 -214 -121 -434 -6 -71 -16 -148 -21 -170 -11 -41 -50 -88
-129 -155 l-46 -38 31 61 c26 53 30 72 29 137 0 52 -8 93 -24 135 -12 33 -26
97 -31 143 -4 45 -17 101 -27 125 -25 57 -60 279 -45 284 33 11 122 85 155
128 57 75 78 140 78 240 0 103 -22 167 -83 245 -103 129 -275 178 -438 124
l-46 -15 -61 60 c-68 66 -186 130 -287 156 -36 9 -104 15 -175 15 -104 0 -124
-3 -210 -33z m321 -171 c129 -28 215 -89 277 -198 51 -92 94 -101 185 -38 70
47 115 57 176 41 145 -39 196 -203 99 -315 -24 -27 -53 -44 -108 -64 -64 -23
-77 -32 -92 -62 -17 -36 -16 -45 10 -208 9 -50 8 -54 -14 -62 -46 -18 -295
-40 -509 -46 -278 -8 -682 17 -761 46 l-21 8 19 114 c25 157 14 179 -103 214
-96 29 -161 124 -144 213 16 87 65 140 146 162 61 16 107 6 176 -41 92 -63
141 -52 189 41 49 98 145 167 268 194 80 18 127 18 207 1z m-526 -1136 c209
-20 852 -10 990 16 l30 5 17 -117 c10 -64 20 -119 22 -121 3 -3 22 9 43 26 21
17 45 31 55 31 41 0 78 -116 59 -181 -14 -46 -70 -113 -114 -135 -81 -43 -99
-44 -679 -44 -536 0 -559 1 -612 20 -63 24 -120 66 -156 117 -41 58 -29 178
23 222 12 9 24 5 62 -24 26 -20 49 -34 52 -31 3 3 12 57 21 121 l16 116 36 -6
c19 -3 80 -10 135 -15z"/>
<path d="M2115 2042 c-124 -58 -102 -243 31 -268 50 -9 121 20 145 60 29 47
33 86 14 134 -30 74 -117 108 -190 74z"/>
<path d="M2805 2040 c-107 -53 -105 -204 2 -252 170 -75 288 165 123 250 -54
27 -74 28 -125 2z"/>
</g>
</svg>
