<?xml version="1.0" standalone="no"?>
<!DOCTYPE svg PUBLIC "-//W3C//DTD SVG 20010904//EN"
 "http://www.w3.org/TR/2001/REC-SVG-20010904/DTD/svg10.dtd">
<svg version="1.0" xmlns="http://www.w3.org/2000/svg"
 width="464.000000pt" height="289.000000pt" viewBox="0 0 464.000000 289.000000"
 preserveAspectRatio="xMidYMid meet">

<g transform="translate(0.000000,289.000000) scale(0.100000,-0.100000)"
fill="#000000" stroke="none">
<path d="M2090 2847 c-106 -36 -171 -77 -242 -149 l-47 -49 -58 18 c-170 51
-351 -10 -447 -150 -48 -70 -66 -132 -66 -228 0 -138 61 -248 180 -327 l66
-44 -22 -121 c-11 -67 -29 -140 -38 -162 -10 -22 -20 -71 -22 -110 -5 -65 -22
-131 -31 -122 -2 2 3 61 12 131 26 211 2 281 -154 439 -89 91 -516 491 -587
551 l-32 26 -66 -51 c-36 -28 -66 -54 -66 -57 0 -3 117 -123 260 -267 281
-284 286 -290 235 -340 -13 -14 -33 -25 -45 -25 -25 0 -155 118 -390 354
l-175 176 -67 -67 -67 -66 260 -265 c143 -146 262 -276 266 -290 14 -57 -44
-105 -95 -78 -15 8 -139 127 -277 265 -137 138 -253 251 -257 251 -10 0 -110
-129 -106 -139 6 -16 486 -526 590 -627 150 -146 219 -168 434 -140 79 11 130
13 145 7 31 -12 104 -89 334 -356 219 -253 399 -449 508 -552 l77 -73 0 -56
c0 -54 2 -59 45 -101 l45 -45 67 6 c79 7 80 7 155 0 55 -6 57 -5 97 35 37 37
41 46 41 90 l0 49 107 98 c138 128 294 297 577 624 259 299 330 375 367 395
15 8 102 21 195 30 93 9 196 22 229 30 88 22 212 87 277 145 119 106 245 310
303 490 37 114 46 282 20 360 -22 65 -73 123 -139 158 -47 25 -59 27 -171 26
-103 0 -132 -5 -205 -28 -240 -79 -458 -225 -559 -377 -72 -108 -102 -214
-121 -434 -16 -191 -21 -203 -98 -277 l-65 -63 -17 40 c-9 22 -19 75 -23 117
-3 42 -14 96 -25 120 -25 57 -61 280 -45 285 33 11 122 85 155 128 57 75 78
140 78 240 0 103 -22 167 -83 245 -103 129 -275 178 -438 124 l-46 -15 -61 60
c-68 66 -186 130 -287 156 -36 9 -104 15 -175 15 -104 0 -124 -3 -210 -33z
m321 -171 c129 -28 215 -89 277 -198 51 -92 94 -101 185 -38 70 47 115 57 176
41 145 -39 196 -203 99 -315 -24 -27 -53 -44 -108 -64 -64 -23 -77 -32 -92
-62 -17 -36 -16 -45 10 -208 9 -50 8 -54 -14 -62 -46 -18 -295 -40 -509 -46
-278 -8 -682 17 -761 46 l-21 8 19 114 c25 157 14 179 -103 214 -96 29 -161
124 -144 213 16 87 65 140 146 162 61 16 107 6 176 -41 92 -63 141 -52 189 41
49 98 145 167 268 194 80 18 127 18 207 1z m-526 -1136 c209 -20 852 -10 990
16 l30 5 17 -117 c10 -64 19 -119 22 -121 3 -3 23 9 44 27 22 17 48 30 59 28
20 -3 49 -56 58 -108 l6 -36 -223 -194 c-123 -107 -299 -270 -393 -362 -93
-93 -175 -168 -180 -168 -6 0 -31 21 -55 46 -85 88 -306 290 -528 483 l-223
193 7 42 c7 46 26 87 47 105 12 9 24 5 62 -24 26 -20 49 -34 52 -31 3 3 12 57
21 121 l16 116 36 -6 c19 -3 80 -10 135 -15z"/>
<path d="M1905 1382 c-124 -58 -102 -243 31 -268 50 -9 121 20 145 60 29 47
33 86 14 134 -30 74 -117 108 -190 74z"/>
<path d="M2595 1380 c-107 -53 -105 -204 2 -252 170 -75 288 165 123 250 -54
27 -74 28 -125 2z"/>
</g>
</svg>
