<?xml version="1.0" standalone="no"?>
<!DOCTYPE svg PUBLIC "-//W3C//DTD SVG 20010904//EN"
 "http://www.w3.org/TR/2001/REC-SVG-20010904/DTD/svg10.dtd">
<svg version="1.0" xmlns="http://www.w3.org/2000/svg"
 width="840.000000pt" height="859.000000pt" viewBox="0 0 840.000000 859.000000"
 preserveAspectRatio="xMidYMid meet">

<g transform="translate(0.000000,859.000000) scale(0.100000,-0.100000)"
fill="#000000" stroke="none">
<path d="M3815 8554 c-826 -89 -1574 -382 -2206 -865 -204 -156 -486 -428
-688 -663 -423 -493 -739 -1142 -891 -1828 l-30 -133 0 -765 0 -765 29 -130
c144 -650 433 -1260 838 -1770 99 -125 458 -489 608 -617 514 -439 1190 -760
1905 -907 311 -63 336 -65 815 -66 477 0 493 1 795 60 717 141 1389 457 1925
904 146 122 514 495 621 631 400 504 717 1177 839 1779 l25 124 0 758 0 759
-26 122 c-124 595 -403 1202 -785 1708 -194 258 -580 639 -840 831 -354 262
-759 474 -1174 616 -284 97 -652 181 -890 203 -119 11 -794 22 -870 14z m830
-278 c278 -31 612 -108 895 -208 850 -300 1603 -912 2076 -1688 284 -464 476
-1011 554 -1575 17 -122 24 -706 11 -878 -32 -413 -178 -939 -377 -1355 -193
-405 -424 -736 -734 -1056 -620 -640 -1387 -1031 -2320 -1183 -128 -21 -761
-30 -953 -14 -234 20 -565 89 -842 178 -478 152 -1000 449 -1383 787 -767 677
-1228 1559 -1348 2581 -26 220 -24 649 4 885 130 1088 642 2006 1501 2692 564
451 1249 736 1991 828 85 11 171 21 190 24 73 9 601 -4 735 -18z"/>
<path d="M4810 6077 l-142 -154 -786 -6 c-433 -4 -949 -7 -1147 -8 -436 0
-573 -8 -635 -36 -71 -31 -164 -124 -202 -201 l-33 -67 -3 -1387 c-2 -849 1
-1429 7 -1493 7 -84 15 -115 36 -150 37 -65 112 -135 182 -173 l61 -32 2052 0
2052 0 61 32 c70 38 145 108 183 174 22 37 28 63 35 152 11 145 11 2618 0
2762 -14 169 -24 202 -88 271 -91 97 -164 130 -335 149 l-103 12 -155 154
-155 154 -372 0 -372 0 -141 -153z m-444 -669 c4 -5 -1 -17 -12 -29 -35 -39
-899 -599 -923 -599 -18 0 -15 344 4 380 17 32 108 90 239 150 187 87 299 110
523 107 89 -1 165 -5 169 -9z m414 -124 c167 -84 350 -239 464 -394 48 -64
193 -346 183 -356 -7 -7 -112 51 -597 335 -212 123 -409 238 -438 255 -41 24
-49 33 -40 42 7 7 66 47 132 88 148 95 163 96 296 30z m-351 -364 c130 -76
306 -181 391 -233 l155 -93 3 -461 2 -460 -379 -227 c-209 -124 -383 -226
-386 -226 -4 0 -185 102 -401 227 l-394 226 0 456 1 456 191 120 c104 66 274
173 377 237 102 65 190 118 195 118 4 0 115 -63 245 -140z m-1194 -535 c-7
-571 -8 -596 -26 -592 -10 3 -79 40 -154 82 l-135 77 0 163 c0 328 71 549 258
803 29 41 56 71 59 68 3 -3 2 -273 -2 -601z m2104 -5 l143 -83 -5 -191 c-4
-166 -8 -205 -32 -295 -45 -175 -126 -339 -235 -480 l-47 -61 -7 37 c-8 51 -8
887 1 1042 5 108 8 122 23 118 9 -2 81 -42 159 -87z m-2249 -713 c147 -82 602
-346 759 -440 l185 -110 -32 -27 c-18 -15 -82 -55 -142 -90 -97 -55 -115 -62
-149 -57 -124 16 -381 215 -548 422 -65 81 -167 271 -179 335 l-7 34 34 -21
c19 -11 54 -32 79 -46z m1890 -382 l0 -183 -77 -50 c-230 -147 -434 -202 -744
-202 -164 0 -192 6 -162 32 68 60 959 602 974 592 5 -3 9 -88 9 -189z"/>
</g>
</svg>
