<?xml version="1.0" standalone="no"?>
<!DOCTYPE svg PUBLIC "-//W3C//DTD SVG 20010904//EN"
 "http://www.w3.org/TR/2001/REC-SVG-20010904/DTD/svg10.dtd">
<svg version="1.0" xmlns="http://www.w3.org/2000/svg"
 width="256.000000pt" height="256.000000pt" viewBox="0 0 256.000000 256.000000"
 preserveAspectRatio="xMidYMid meet">

<g transform="translate(0.000000,256.000000) scale(0.100000,-0.100000)"
fill="#000000" stroke="none">
<path d="M110 1709 c-58 -24 -100 -85 -99 -146 0 -37 2 -39 62 -68 83 -40 110
-91 116 -214 3 -79 2 -83 -15 -76 -55 21 -78 24 -109 10 -41 -16 -55 -41 -55
-93 0 -49 28 -76 117 -112 l60 -24 6 -220 c4 -191 8 -229 26 -281 33 -93 98
-194 171 -266 74 -73 144 -117 238 -149 62 -20 75 -21 670 -18 l607 3 63 27
c172 74 312 226 372 408 19 56 23 95 28 281 l5 215 60 25 c91 36 117 61 117
115 0 35 -6 51 -25 70 -22 22 -33 25 -73 22 -26 -3 -55 -8 -66 -13 -18 -8 -18
-3 -14 81 6 124 30 168 115 209 61 29 62 31 62 71 1 46 -26 94 -72 128 -28 21
-29 21 -1185 23 -757 1 -1166 -2 -1182 -8z"/>
</g>
</svg>
